<svg viewBox="0 0 512 512" xmlns="http://www.w3.org/2000/svg"><linearGradient gradientUnits="userSpaceOnUse" id="a" x1="256" x2="256" y1="512" y2="0"><stop offset="0" stop-color="#4ca2cd"/><stop offset="1" stop-color="#67b26f"/></linearGradient><circle cx="256" cy="256" fill="url(#a)" r="256"/><path d="M377.9 318.2l-40.5-40.5c-4.1-4.1-9.5-6.3-15.3-6.3-5.8 0-11.2 2.2-15.3 6.3l-26.1 26.1-71.8-71.8 26.1-26.1c8.4-8.4 8.4-22.1 0-30.5l-41.2-41.2c-4.1-4.1-9.5-6.3-15.3-6.3-5.8 0-11.2 2.2-15.3 6.3L145 152.4c-13.1 13.1-18.9 29.1-16.8 46.3 1.9 15.7 10.1 31.3 23.8 45L268.3 360c15.6 15.6 34 24.2 51.7 24.2 14.6 0 28.3-6 39.6-17.2l18.3-18.3c8.5-8.4 8.5-22.1 0-30.5zm-7.9 22.6l-18.3 18.3c-9.2 9.2-19.9 13.9-31.7 13.9-14.7 0-30.2-7.4-43.7-20.9L159.9 235.7c-19-19-32.3-50.2-7-75.4l18.3-18.3c2-2 4.6-3 7.3-3 2.8 0 5.4 1.1 7.3 3l41.2 41.2c4 4 4 10.6 0 14.6L197 228c-1.1 1.1-1.6 2.5-1.6 4s.6 2.9 1.6 4l79.8 79.8c1.1 1.1 2.5 1.6 4 1.6s2.9-.6 4-1.6l30.1-30.1c2-2 4.6-3 7.3-3s5.4 1.1 7.3 3l40.5 40.5c4 4 4 10.5 0 14.6z" fill="#FFF"/></svg>