<svg height="512pt" viewBox="0 0 512 512" width="512pt" xmlns="http://www.w3.org/2000/svg" fill="#fff"><path d="M489.41 21.848C475 7.758 456.031 0 436 0H75C33.645 0 0 33.645 0 75v362c0 41.355 33.645 75 75 75h362c41.355 0 75-33.645 75-75V75c0-20.04-8.023-38.914-22.59-53.152zM271 271h-30v-30h30c8.285 0 15-6.715 15-15 0-41.14-.004-59.957-.004-68.613-.004-15.934.02-33.29 15.582-46.606 11.863-10.148 26.985-16.277 47.594-19.293 21.742-3.175 43.808-2.183 67.113 3.047-1.77 11.91-3.867 26.02-5.45 36.653-8.843-1.793-24.019-3.243-36.44-1.137C346.816 134.715 331 151.828 331 177v49c0 8.285 6.715 15 15 15h55.79l-7.5 30H346c-8.285 0-15 6.715-15 15v196h-45V286c0-8.285-6.715-15-15-15zm211 166c0 24.813-20.188 45-45 45h-76V301h45a14.996 14.996 0 0014.55-11.363l15-60a15.001 15.001 0 00-2.726-12.867A15.008 15.008 0 00421 211h-60v-34c0-6.898 1.422-14.5 18.406-17.375 13.29-2.25 25.164.719 35.64 3.344 5.036 1.258 10.454 3.176 16.63-1.004a15.018 15.018 0 006.43-10.211s6.738-45.27 9.843-66.2a15.001 15.001 0 00-10.734-16.632c-29.297-8.332-65.133-11.07-92.184-7.117-26.46 3.87-46.601 12.187-62.957 26.183-22.754 19.469-25.578 44.45-25.87 61.485-.009.347-.005 30.648-.005 61.527H226c-8.285 0-15 6.715-15 15v60c0 8.285 6.715 15 15 15h30v181H75c-24.813 0-45-20.188-45-45V75c0-24.813 20.188-45 45-45h361c24.934 0 46 20.61 46 45zm0 0"/></svg>