<svg xmlns="http://www.w3.org/2000/svg" viewBox="0 0 439.6 439.6"><path d="M399.6 148.5l-56.8-79.3c-9.4-13-24.7-20.7-40.9-20.7-10.9 0-21.3 3.4-30.1 9.7-4.6 3.3-8.7 7.5-12.1 12.3-7.9-5-17.2-7.7-26.8-7.7-10.7 0-20.9 3.3-29.5 9.6-5.7 4.1-10.3 9.1-13.8 14.6-6.8-3.3-14.4-5.1-22.2-5.2-10.7 0-20.9 3.3-29.6 9.6-3.9 2.8-7.3 6.1-10.2 9.8L119 89.3l-14.4-20c-3.1-4.3-4.8-6.6-5.9-8.1C90 49.6 76.4 43 61.2 43c-10.9 0-21.8 3.5-30.6 9.9-10.9 7.9-18.1 19.6-20.3 32.9-2.1 13.3 1 26.7 9 37.6 0 0 68 94 105.9 146.3-2.7-.4-5.5-.6-8.3-.6-12.4 0-24.5 4.2-33.9 11.7-9.9 8-16.5 19.4-18.6 32.2-4.3 26.9 11.7 51.8 39.8 62.1 6.4 2.6 54.3 21.6 114.4 21.6 52.9 0 99.5-14.3 138.5-42.6 46.3-33.5 70.8-72.1 72.8-114.7 1.3-30.1-9.1-61.6-30.3-90.9zm-55.8 187.2c-40.6 29.4-85.7 38.2-125.2 38.2-59.4 0-106.2-20-106.2-20-17.2-6.2-28.4-20.3-25.6-37.4 2.4-15.2 15.2-24.8 30-24.8 1.8 0 3.7.1 5.6.4 0 0 22.1 3.5 33.9 5.4 1.6.3 3 .4 4.2.4 8.6 0 9.3-5.5 7.7-7.6-1.2-1.7-130.5-180.4-130.5-180.4-9-12.4-6.2-29.8 6.2-38.8 5.1-3.7 11.3-5.6 17.3-5.6 7.5 0 14.6 2.9 19.1 8.9 0 0 69.8 96.5 84.5 116.9 0 0 0 .1.1.1l5.7 7.9c.9 1.2 2.3 1.9 3.7 1.9.9 0 1.8-.3 2.7-.9 2-1.5 2.5-4.3 1-6.3l-33.4-46.2c-8.7-12.4-5.8-29.5 6.5-38.4 4.9-3.6 10.6-5.3 16.3-5.3 8.6 0 17.1 4 22.5 11.5l33.8 46.7c.9 1.2 2.2 1.8 3.6 1.8.9 0 1.8-.3 2.6-.8 2-1.4 2.4-4.2 1-6.2L208.1 126c-8.2-11.3-2.9-27.2 8.4-35.4 4.9-3.6 10.6-5.3 16.2-5.3 8.6 0 17.1 4 22.5 11.5l21.9 30.3c.8 1.2 2.2 1.8 3.5 1.8.9 0 1.8-.3 2.5-.8 1.9-1.4 1.8-5.1.3-7l-7.6-10.4c-7.5-10.3-2-26.3 8.9-34.2 5-3.6 10.9-5.4 16.7-5.4 8.6 0 17.2 3.9 22.5 11.3l56.9 79.4c28.2 38.5 54.4 107.7-37 173.9z" fill="#fff"/></svg>